<svg display="none" xmlns="http://www.w3.org/2000/svg">

    <symbol width="24" height="16" viewBox="0 0 24 16" fill="none" id="youtube-icon">
        <path fill-rule="evenodd" clip-rule="evenodd"
            d="M20.9551 0.546524C21.9168 0.671826 22.836 1.60713 22.9529 2.58254C23.367 6.15726 23.367 9.62366 22.9529 13.1973C22.836 14.1727 21.9168 15.1091 20.9551 15.2333C15.0907 15.962 9.16001 15.962 3.29728 15.2333C2.33468 15.1088 1.41552 14.1727 1.29858 13.1973C0.884524 9.62338 0.884524 6.15726 1.29858 2.58254C1.41552 1.60713 2.33468 0.671548 3.29728 0.546524C9.16001 -0.182175 15.0904 -0.182175 20.9551 0.546524ZM10.2693 4.17777V11.6031L15.8383 7.8906L10.2693 4.17777Z"
            fill="black" />
    </symbol>

    <symbol viewBox="0 0 156 156" id="linkedin-icon">
        <path fill-rule="evenodd" clip-rule="evenodd"
            d="M31.2 0C13.9687 0 0 13.9687 0 31.2V124.8C0 142.031 13.9687 156 31.2 156H124.8C142.031 156 156 142.031 156 124.8V31.2C156 13.9687 142.031 0 124.8 0H31.2ZM15.6 31.2C15.6 22.5844 22.5844 15.6 31.2 15.6H124.8C133.416 15.6 140.4 22.5844 140.4 31.2V124.8C140.4 133.416 133.416 140.4 124.8 140.4H31.2C22.5844 140.4 15.6 133.416 15.6 124.8V31.2ZM54.6 70.2C54.6 65.8921 51.1078 62.4 46.8 62.4C42.4922 62.4 39 65.8921 39 70.2V117C39 121.308 42.4922 124.8 46.8 124.8C51.1078 124.8 54.6 121.308 54.6 117V70.2ZM58.5 42.9C58.5 49.3618 53.2618 54.6 46.8 54.6C40.3382 54.6 35.1 49.3618 35.1 42.9C35.1 36.4382 40.3382 31.2 46.8 31.2C53.2618 31.2 58.5 36.4382 58.5 42.9ZM78 62.4C80.6481 62.4 82.9881 63.7198 84.3983 65.7376C88.3966 63.5716 92.8481 62.4 97.5 62.4C114.343 62.4 124.8 77.4212 124.8 90.2569V90.3162V90.3747V90.434V90.4933V90.5525V90.6126V90.6719V90.7319V90.792V90.8521V90.9129V90.973V91.0338V91.0946V91.1555V91.2163V91.2772V91.3388V91.4004V91.4612V91.5236V91.5853V91.6469V91.7093V91.7709V91.8333V91.8957V91.9589V92.0213V92.0845V92.1469V92.21V92.2732V92.3364V92.4004V92.4635V92.5275V92.5907V92.6546V92.7186V92.7833V92.8473V92.9113V92.976V93.0407V93.1047V93.1694V93.235V93.2997V93.3644V93.43V93.4955V93.5602V93.6257V93.6913V93.7568V93.8231V93.8886V93.9549V94.0204V94.0867V94.153V94.2193V94.2856V94.3519V94.4182V94.4853V94.5516V94.6187V94.6858V94.7528V94.8191V94.887V94.9541V95.0212V95.0882V95.1561V95.2232V95.291V95.3581V95.426V95.4938V95.5617V95.6296V95.6974V95.7653V95.8339V95.9018V95.9704V96.0383V96.1069V96.1748V96.2434V96.3121V96.3807V96.4493V96.518V96.5866V96.6553V96.7239V96.7925V96.862V96.9306V97V97.0687V97.1381V97.2067V97.2761V97.3456V97.415V97.4836V97.553V97.6225V97.6919V97.7613V97.8307V97.9001V97.9696V98.0398V98.1092V98.1786V98.248V98.3182V98.3876V98.4571V98.5273V98.5967V98.6669V98.7363V98.8057V98.8759V98.9461V99.0155V99.0857V99.1552V99.2254V99.2956V99.365V99.4352V99.5046V99.5748V99.645V99.7144V99.7846V99.8548V99.9242V99.9944V100.065V100.135V100.204V100.274V100.345V100.414V100.484V100.554V100.624V100.694V100.764V100.834V100.903V100.973V101.044V101.113V101.183V101.253V101.322V101.392V101.462V101.532V101.601V101.671V101.74V101.81V101.88V101.949V102.019V102.088V102.157V102.227V102.296V102.366V102.435V102.504V102.573V102.643V102.712V102.781V102.85V102.919V102.988V103.057V103.126V103.195V103.263V103.332V103.401V103.469V103.538V103.607V103.675V103.744V103.812V103.88V103.948V104.017V104.085V104.153V104.22V104.288V104.356V104.424V104.492V104.56V104.628V104.695V104.763V104.83V104.897V104.965V105.032V105.099V105.165V105.232V105.299V105.366V105.433V105.499V105.566V105.632V105.699V105.765V105.831V105.897V105.963V106.029V106.095V106.16V106.226V106.291V106.357V106.422V106.487V106.553V106.617V106.682V106.747V106.812V106.876V106.941V107.005V107.07V107.134V107.198V107.262V107.326V107.39V107.453V107.517V107.58V107.643V107.706V107.769V107.832V107.895V107.957V108.02V108.082V108.145V108.207V108.269V108.33V108.393V108.454V108.515V108.577V108.638V108.699V108.76V108.821V108.882V108.942V109.003V109.063V109.123V109.183V109.243V109.302V109.362V109.422V109.481V109.539V109.599V109.657V109.716V109.774V109.833V109.891V109.949V110.007V110.064V110.122V110.179V110.237V110.294V110.35V110.407V110.464V110.52V110.576V110.632V110.688V110.744V110.799V110.854V110.91V110.964V111.019V111.074V111.128V111.183V111.237V111.29V111.344V111.398V111.451V111.504V111.557V111.61V111.662V111.715V111.767V111.819V111.872V111.923V111.974V112.025V112.077V112.127V112.178V112.228V112.279V112.329V112.378V112.428V112.478V112.527V112.576V112.624V112.673V112.721V112.769V112.818V112.865V112.913V112.96V113.007V113.054V113.1V113.147V113.193V113.239V113.285V113.33V113.375V113.421V113.465V113.509V113.554V113.598V113.642V113.686V113.729V113.772V113.815V113.858V113.9V113.943V113.985V114.027V114.068V114.109V114.151V114.191V114.232V114.272V114.312V114.352V114.392V114.431V114.47V114.509V114.547V114.585V114.623V114.661V114.698V114.736V114.772V114.809V114.846V114.882V114.917V114.953V114.988V115.023V115.059V115.093V115.127V115.162V115.195V115.229V115.261V115.294V115.327V115.36V115.392V115.423V115.455V115.486V115.516V115.548V115.578V115.608V115.637V115.667V115.696V115.725V115.754V115.782V115.81V115.838V115.865V115.892V115.919V115.945V115.972V115.998V116.023V116.048V116.073V116.098V116.123V116.147V116.17V116.193V116.217V116.24V116.262V116.285V116.307V116.328V116.349V116.37V116.391V116.411V116.431V116.45V116.47V116.488V116.507V116.526V116.544V116.562V116.579V116.595V116.612V116.629V116.644V116.66V116.676V116.69V116.705V116.719V116.733V116.747V116.761V116.773V116.785V116.798V116.81V116.821V116.832V116.843V116.854V116.864V116.874V116.883V116.892V116.901V116.91V116.917V116.932V116.945V116.958V116.968V116.977V116.988V116.997C124.8 121.305 121.308 124.8 117 124.8C112.692 124.8 109.2 121.308 109.2 117V116.991V116.981V116.973V116.963V116.952V116.939V116.925V116.91V116.901V116.892V116.883V116.874V116.864V116.854V116.843V116.832V116.821V116.81V116.798V116.785V116.773V116.761V116.747V116.733V116.719V116.705V116.69V116.676V116.66V116.644V116.629V116.612V116.595V116.579V116.562V116.544V116.526V116.507V116.488V116.47V116.45V116.431V116.411V116.391V116.37V116.349V116.328V116.307V116.285V116.262V116.24V116.217V116.193V116.17V116.147V116.123V116.098V116.073V116.048V116.023V115.998V115.972V115.945V115.919V115.892V115.865V115.838V115.81V115.782V115.754V115.725V115.696V115.667V115.637V115.608V115.578V115.548V115.516V115.486V115.455V115.423V115.392V115.36V115.327V115.294V115.261V115.229V115.195V115.162V115.127V115.093V115.059V115.023V114.988V114.953V114.917V114.882V114.846V114.809V114.772V114.736V114.698V114.661V114.623V114.585V114.547V114.509V114.47V114.431V114.392V114.352V114.312V114.272V114.232V114.191V114.151V114.109V114.068V114.027V113.985V113.943V113.9V113.858V113.815V113.772V113.729V113.686V113.642V113.598V113.554V113.509V113.465V113.421V113.375V113.33V113.285V113.239V113.193V113.147V113.1V113.054V113.007V112.96V112.913V112.865V112.818V112.769V112.721V112.673V112.624V112.576V112.527V112.478V112.428V112.378V112.329V112.279V112.228V112.178V112.127V112.077V112.025V111.974V111.923V111.872V111.819V111.767V111.715V111.662V111.61V111.557V111.504V111.451V111.398V111.344V111.29V111.237V111.183V111.128V111.074V111.019V110.964V110.91V110.854V110.799V110.744V110.688V110.632V110.576V110.52V110.464V110.407V110.35V110.294V110.237V110.179V110.122V110.064V110.007V109.949V109.891V109.833V109.774V109.716V109.657V109.599V109.539V109.481V109.422V109.362V109.302V109.243V109.183V109.123V109.063V109.003V108.942V108.882V108.821V108.76V108.699V108.638V108.577V108.515V108.454V108.393V108.33V108.269V108.207V108.145V108.082V108.02V107.957V107.895V107.832V107.769V107.706V107.643V107.58V107.517V107.453V107.39V107.326V107.262V107.198V107.134V107.07V107.005V106.941V106.876V106.812V106.747V106.682V106.617V106.553V106.487V106.422V106.357V106.291V106.226V106.16V106.095V106.029V105.963V105.897V105.831V105.765V105.699V105.632V105.566V105.499V105.433V105.366V105.299V105.232V105.165V105.099V105.032V104.965V104.897V104.83V104.763V104.695V104.628V104.56V104.492V104.424V104.356V104.288V104.22V104.153V104.085V104.017V103.948V103.88V103.812V103.744V103.675V103.607V103.538V103.469V103.401V103.332V103.263V103.195V103.126V103.057V102.988V102.919V102.85V102.781V102.712V102.643V102.573V102.504V102.435V102.366V102.296V102.227V102.157V102.088V102.019V101.949V101.88V101.81V101.74V101.671V101.601V101.532V101.462V101.392V101.322V101.253V101.183V101.113V101.044V100.973V100.903V100.834V100.764V100.694V100.624V100.554V100.484V100.414V100.345V100.274V100.204V100.135V100.065V99.9944V99.9242V99.8548V99.7846V99.7144V99.645V99.5748V99.5046V99.4352V99.365V99.2956V99.2254V99.1552V99.0857V99.0155V98.9461V98.8759V98.8057V98.7363V98.6669V98.5967V98.5273V98.4571V98.3876V98.3182V98.248V98.1786V98.1092V98.0398V97.9696V97.9001V97.8307V97.7613V97.6919V97.6225V97.553V97.4836V97.415V97.3456V97.2761V97.2067V97.1381V97.0687V97V96.9306V96.862V96.7925V96.7239V96.6553V96.5866V96.518V96.4493V96.3807V96.3121V96.2434V96.1748V96.1069V96.0383V95.9704V95.9018V95.8339V95.7653V95.6974V95.6296V95.5617V95.4938V95.426V95.3581V95.291V95.2232V95.1561V95.0882V95.0212V94.9541V94.887V94.8191V94.7528V94.6858V94.6187V94.5516V94.4853V94.4182V94.3519V94.2856V94.2193V94.153V94.0867V94.0204V93.9549V93.8886V93.8231V93.7568V93.6913V93.6257V93.5602V93.4955V93.43V93.3644V93.2997V93.235V93.1694V93.1047V93.0407V92.976V92.9113V92.8473V92.7833V92.7186V92.6546V92.5907V92.5275V92.4635V92.4004V92.3364V92.2732V92.21V92.1469V92.0845V92.0213V91.9589V91.8957V91.8333V91.7709V91.7093V91.6469V91.5853V91.5236V91.4612V91.4004V91.3388V91.2772V91.2163V91.1555V91.0946V91.0338V90.973V90.9129V90.8521V90.792V90.7319V90.6719V90.6126V90.5525V90.4933V90.434V90.3747V90.3162V90.2569C109.2 84.265 104.057 78 97.5 78C93.412 78 88.8997 80.2222 85.8 85.5122V85.5332V85.6136V85.6939V85.7743V85.8554V85.9357V86.0168V86.098V86.1799V86.261V86.3421V86.424V86.5059V86.5878V86.6697V86.7516V86.8343V86.917V86.9989V87.0815V87.1642V87.2469V87.3304V87.413V87.4965V87.58V87.6626V87.7469V87.8303V87.9138V87.9973V88.0815V88.1657V88.2492V88.3334V88.4177V88.5019V88.5869V88.6712V88.7562V88.8404V88.9255V89.0105V89.0955V89.1805V89.2655V89.3506V89.4364V89.5214V89.6072V89.6922V89.778V89.8638V89.9496V90.0354V90.1212V90.207V90.2936V90.3794V90.4652V90.5518V90.6383V90.7241V90.8107V90.8973V90.9839V91.0705V91.157V91.2436V91.3302V91.4176V91.5041V91.5907V91.6781V91.7647V91.852V91.9394V92.026V92.1133V92.2007V92.288V92.3746V92.462V92.5493V92.6367V92.7248V92.8122V92.8996V92.9869V93.0743V93.1616V93.2498V93.3371V93.4245V93.5126V93.6V93.6881V93.7755V93.8636V93.951V94.0384V94.1265V94.2146V94.302V94.3901V94.4775V94.5656V94.653V94.7411V94.8293V94.9166V95.0048V95.0921V95.1803V95.2684V95.3558V95.4439V95.5313V95.6194V95.7068V95.7949V95.8823V95.9704V96.0578V96.1459V96.2333V96.3214V96.4088V96.4969V96.5843V96.6716V96.759V96.8471V96.9345V97.0219V97.1092V97.1966V97.2839V97.3713V97.4587V97.546V97.6334V97.7207V97.8081V97.8947V97.982V98.0694V98.156V98.2433V98.3299V98.4173V98.5039V98.5904V98.677V98.7636V98.851V98.9375V99.0233V99.1099V99.1965V99.2831V99.3689V99.4555V99.5413V99.6278V99.7136V99.7994V99.8852V99.971V100.057V100.143V100.228V100.313V100.399V100.484V100.57V100.655V100.74V100.825V100.91V100.995V101.079V101.164V101.249V101.334V101.418V101.502V101.586V101.671V101.755V101.838V101.923V102.006V102.09V102.173V102.256V102.34V102.423V102.507V102.59V102.672V102.755V102.838V102.92V103.003V103.086V103.167V103.249V103.331V103.413V103.495V103.577V103.658V103.739V103.821V103.902V103.983V104.064V104.145V104.225V104.306V104.386V104.466V104.546V104.626V104.706V104.785V104.865V104.944V105.023V105.103V105.181V105.26V105.338V105.417V105.495V105.573V105.651V105.729V105.807V105.884V105.961V106.039V106.116V106.192V106.27V106.346V106.422V106.498V106.575V106.65V106.726V106.802V106.876V106.952V107.027V107.102V107.176V107.251V107.325V107.399V107.473V107.546V107.62V107.693V107.766V107.84V107.912V107.985V108.057V108.129V108.201V108.273V108.344V108.415V108.487V108.558V108.628V108.699V108.769V108.84V108.909V108.979V109.049V109.118V109.187V109.255V109.324V109.393V109.461V109.528V109.596V109.664V109.731V109.798V109.865V109.932V109.998V110.064V110.131V110.196V110.262V110.326V110.391V110.456V110.521V110.585V110.649V110.712V110.776V110.84V110.903V110.965V111.028V111.09V111.152V111.214V111.276V111.336V111.397V111.458V111.519V111.579V111.639V111.698V111.758V111.818V111.876V111.935V111.993V112.052V112.109V112.166V112.224V112.281V112.338V112.394V112.45V112.506V112.562V112.617V112.672V112.727V112.781V112.836V112.889V112.943V112.996V113.049V113.102V113.155V113.207V113.258V113.31V113.361V113.412V113.463V113.513V113.563V113.612V113.662V113.711V113.76V113.808V113.857V113.904V113.952V113.999V114.046V114.092V114.139V114.185V114.23V114.275V114.321V114.365V114.41V114.453V114.497V114.541V114.584V114.626V114.669V114.71V114.752V114.793V114.834V114.875V114.915V114.955V114.995V115.034V115.073V115.111V115.149V115.187V115.225V115.262V115.299V115.335V115.371V115.406V115.442V115.477V115.512V115.546V115.58V115.613V115.647V115.679V115.711V115.744V115.775V115.807V115.838V115.868V115.899V115.928V115.958V115.987V116.016V116.044V116.072V116.099V116.126V116.153V116.179V116.205V116.231V116.256V116.281V116.305V116.329V116.353V116.376V116.399V116.421V116.443V116.464V116.486V116.506V116.527V116.547V116.566V116.585V116.604V116.622V116.64V116.658V116.675V116.691V116.707V116.723V116.739V116.754V116.768V116.782V116.796V116.809V116.821V116.834V116.846V116.857V116.868V116.879V116.889V116.899V116.909V116.917V116.926V116.934V116.949V116.961V116.972V116.981V116.991V116.999C85.8 121.307 82.3079 124.8 78 124.8C73.6921 124.8 70.2 121.308 70.2 117V116.991V116.981V116.972V116.961V116.949V116.934V116.926V116.917V116.909V116.899V116.889V116.879V116.868V116.857V116.846V116.834V116.821V116.809V116.796V116.782V116.768V116.754V116.739V116.723V116.707V116.691V116.675V116.658V116.64V116.622V116.604V116.585V116.566V116.547V116.527V116.506V116.486V116.464V116.443V116.421V116.399V116.376V116.353V116.329V116.305V116.281V116.256V116.231V116.205V116.179V116.153V116.126V116.099V116.072V116.044V116.016V115.987V115.958V115.928V115.899V115.868V115.838V115.807V115.775V115.744V115.711V115.679V115.647V115.613V115.58V115.546V115.512V115.477V115.442V115.406V115.371V115.335V115.299V115.262V115.225V115.187V115.149V115.111V115.073V115.034V114.995V114.955V114.915V114.875V114.834V114.793V114.752V114.71V114.669V114.626V114.584V114.541V114.497V114.453V114.41V114.365V114.321V114.275V114.23V114.185V114.139V114.092V114.046V113.999V113.952V113.904V113.857V113.808V113.76V113.711V113.662V113.612V113.563V113.513V113.463V113.412V113.361V113.31V113.258V113.207V113.155V113.102V113.049V112.996V112.943V112.889V112.836V112.781V112.727V112.672V112.617V112.562V112.506V112.45V112.394V112.338V112.281V112.224V112.166V112.109V112.052V111.993V111.935V111.876V111.818V111.758V111.698V111.639V111.579V111.519V111.458V111.397V111.336V111.276V111.214V111.152V111.09V111.028V110.965V110.903V110.84V110.776V110.712V110.649V110.585V110.521V110.456V110.391V110.326V110.262V110.196V110.131V110.064V109.998V109.932V109.865V109.798V109.731V109.664V109.596V109.528V109.461V109.393V109.324V109.255V109.187V109.118V109.049V108.979V108.909V108.84V108.769V108.699V108.628V108.558V108.487V108.415V108.344V108.273V108.201V108.129V108.057V107.985V107.912V107.84V107.766V107.693V107.62V107.546V107.473V107.399V107.325V107.251V107.176V107.102V107.027V106.952V106.876V106.802V106.726V106.65V106.575V106.498V106.422V106.346V106.27V106.192V106.116V106.039V105.961V105.884V105.807V105.729V105.651V105.573V105.495V105.417V105.338V105.26V105.181V105.103V105.023V104.944V104.865V104.785V104.706V104.626V104.546V104.466V104.386V104.306V104.225V104.145V104.064V103.983V103.902V103.821V103.739V103.658V103.577V103.495V103.413V103.331V103.249V103.167V103.086V103.003V102.92V102.838V102.755V102.672V102.59V102.507V102.423V102.34V102.256V102.173V102.09V102.006V101.923V101.838V101.755V101.671V101.586V101.502V101.418V101.334V101.249V101.164V101.079V100.995V100.91V100.825V100.74V100.655V100.57V100.484V100.399V100.313V100.228V100.143V100.057V99.971V99.8852V99.7994V99.7136V99.6278V99.5413V99.4555V99.3689V99.2831V99.1965V99.1099V99.0233V98.9375V98.851V98.7636V98.677V98.5904V98.5039V98.4173V98.3299V98.2433V98.156V98.0694V97.982V97.8947V97.8081V97.7207V97.6334V97.546V97.4587V97.3713V97.2839V97.1966V97.1092V97.0219V96.9345V96.8471V96.759V96.6716V96.5843V96.4969V96.4088V96.3214V96.2333V96.1459V96.0578V95.9704V95.8823V95.7949V95.7068V95.6194V95.5313V95.4439V95.3558V95.2684V95.1803V95.0921V95.0048V94.9166V94.8293V94.7411V94.653V94.5656V94.4775V94.3901V94.302V94.2146V94.1265V94.0384V93.951V93.8636V93.7755V93.6881V93.6V93.5126V93.4245V93.3371V93.2498V93.1616V93.0743V92.9869V92.8996V92.8122V92.7248V92.6367V92.5493V92.462V92.3746V92.288V92.2007V92.1133V92.026V91.9394V91.852V91.7647V91.6781V91.5907V91.5041V91.4176V91.3302V91.2436V91.157V91.0705V90.9839V90.8973V90.8107V90.7241V90.6383V90.5518V90.4652V90.3794V90.2936V90.207V90.1212V90.0354V89.9496V89.8638V89.778V89.6922V89.6072V89.5214V89.4364V89.3506V89.2655V89.1805V89.0955V89.0105V88.9255V88.8404V88.7562V88.6712V88.5869V88.5019V88.4177V88.3334V88.2492V88.1657V88.0815V87.9973V87.9138V87.8303V87.7469V87.6626V87.58V87.4965V87.413V87.3304V87.2469V87.1642V87.0815V86.9989V86.917V86.8343V86.7516V86.6697V86.5878V86.5059V86.424V86.3421V86.261V86.1799V86.098V86.0168V85.9357V85.8554V85.7743V85.6939V85.6136V85.5332V85.4529V85.3726V85.2922V85.2127V85.1331V85.0535V84.974V84.8952V84.8156V84.7369V84.6581V84.5793V84.5013V84.4225V84.3445V84.2665V84.1885V84.1105V84.0333V83.9561V83.8789V83.8016V83.7244V83.648V83.5715V83.5411V83.5099V83.4795V83.4483V83.4179V83.3867V83.3555V83.3243V83.2931V83.2619V83.2307V83.1995V83.1683V83.1371V83.1051V83.0739V83.0419V83.0099V82.9787V82.9468V82.9148V82.8828V82.8508V82.8188V82.7869V82.7549V82.7229V82.6901V82.6582V82.6254V82.5934V82.5607V82.5279V82.4959V82.4632V82.4304V82.3976V82.3649V82.3321V82.2994V82.2666V82.2331V82.2003V82.1675V82.134V82.1012V82.0677V82.0349V82.0014V81.9679V81.9351V81.9016V81.868V81.8345V81.8009V81.7674V81.7339V81.7003V81.6668V81.6325V81.5989V81.5654V81.5318V81.4975V81.464V81.4297V81.3961V81.3618V81.3275V81.2939V81.2596V81.2253V81.1918V81.1574V81.1231V81.0888V81.0545V81.0202V80.9858V80.9515V80.9172V80.8829V80.8486V80.8135V80.7791V80.7448V80.7105V80.6754V80.6411V80.6068V80.5717V80.5373V80.5022V80.4679V80.4328V80.3985V80.3634V80.3291V80.294V80.2589V80.2246V80.1895V80.1544V80.12V80.0849V80.0498V80.0147V79.9804V79.9453V79.9102V79.8751V79.84V79.8049V79.7706V79.7355V79.7004V79.6653V79.6302V79.5951V79.56V79.5249V79.4898V79.4547V79.4196V79.3845V79.3494V79.3143V79.2792V79.2441V79.209V79.1739V79.1388V79.1037V79.0686V79.0335V78.9984V78.9633V78.9282V78.8931V78.858V78.8229V78.787V78.7519V78.7168V78.6817V78.6466V78.6115V78.5764V78.5413V78.5062V78.4711V78.4368V78.4017V78.3666V78.3315V78.2964V78.2613V78.2262V78.1911V78.156V78.1209V78.0866V78.0515V78.0164V77.9813V77.947V77.9119V77.8768V77.8417V77.8073V77.7722V77.7371V77.7028V77.6677V77.6334V77.5983V77.564V77.5289V77.4946V77.4595V77.4251V77.3908V77.3557V77.3214V77.2871V77.252V77.2177V77.1833V77.149V77.1147V77.0804V77.0461V77.0117V76.9774V76.9431V76.9088V76.8745V76.8401V76.8066V76.7723V76.738V76.7036V76.6701V76.6358V76.6022V76.5679V76.5344V76.5001V76.4665V76.433V76.3994V76.3651V76.3316V76.298V76.2645V76.231V76.1974V76.1639V76.1303V76.0976V76.064V76.0305V75.9977V75.9642V75.9307V75.8979V75.8651V75.8316V75.7988V75.7661V75.7333V75.7006V75.667V75.6343V75.6023V75.5695V75.5368V75.504V75.472V75.4393V75.4065V75.3745V75.3425V75.3098V75.2778V75.2458V75.2138V75.1819V75.1499V75.1179V75.0859V75.0539V75.0227V74.9908V74.9588V74.9276V74.8964V74.8644V74.8332V74.802V74.7708V74.7396V74.7084V74.6772V74.646V74.6156V74.5844V74.554V74.5228V74.4923V74.4619V74.4307V74.4003V74.3699V74.3402V74.3098V74.2794V74.249V74.2193V74.1889V74.1593V74.1296V74.1V74.0704V74.0407V74.0111V73.9814V73.9518V73.9229V73.8933V73.8644V73.8356V73.8059V73.7771V73.7482V73.7194V73.6913V73.6624V73.6336V73.6055V73.5766V73.5485V73.5205V73.4924V73.4643V73.4362V73.4081V73.3808V73.3528V73.3255V73.2974V73.2701V73.2428V73.2155V73.1882V73.1617V73.1344V73.1078V73.0805V73.054V73.0275V73.001V72.9745V72.9479V72.9214V72.8957V72.8692V72.8434V72.8177V72.7919V72.7662V72.7405V72.7147V72.6898V72.664V72.6391V72.6141V72.5891V72.5642V72.5392V72.5143V72.4901V72.4651V72.4409V72.4168V72.3926V72.3684V72.3442V72.3208V72.2966V72.2732V72.2498V72.2264V72.203V72.1796V72.1562V72.1336V72.1102V72.0876V72.065V72.0424V72.0197V71.9979V71.9753V71.9534V71.9308V71.909V71.8871V71.8661V71.8442V71.8232V71.8013V71.7803V71.7592V71.7382V71.7171V71.6968V71.6758V71.6555V71.6352V71.6149V71.5946V71.5751V71.5549V71.5354V71.5159V71.4964V71.4769V71.4574V71.4386V71.4191V71.4004V71.3817V71.363V71.3443V71.3263V71.3076V71.2897V71.2717V71.2538V71.2366V71.2187V71.2015V71.1836V71.1664V71.1493V71.1329V71.1157V71.0993V71.083V71.0666V71.0502V71.0338V71.0182V71.0018V70.9862V70.9706V70.9558V70.9402V70.9254V70.9098V70.895V70.8809V70.8661V70.8513V70.8373V70.8232V70.8092V70.7951V70.7819V70.7678V70.7546V70.7413V70.7281V70.7156V70.7023V70.6898V70.6774V70.6649V70.6524V70.6407V70.629V70.6173V70.6056V70.5939V70.5822V70.5713V70.5604V70.5494V70.5385V70.5284V70.5182V70.5073V70.498V70.4878V70.4777V70.4683V70.459V70.4496V70.4402V70.4317V70.4231V70.4145V70.4059V70.3973V70.3895V70.381V70.3732V70.3583V70.3443V70.3303V70.317V70.3045V70.2928V70.2819V70.271V70.2616V70.2523V70.2406V70.2328V70.2234V70.2156V70.2062C70.2 65.8983 73.6921 62.4 78 62.4Z" />
    </symbol>


    <symbol fill="none" viewBox="0 0 579.148 579.148" id="print-icon">
        <path d="M434.924,38.847C390.561,12.954,342.107,0.01,289.574,0.01c-52.54,0-100.992,12.944-145.356,38.837
			C99.854,64.741,64.725,99.87,38.837,144.228C12.944,188.597,0,237.049,0,289.584c0,58.568,15.955,111.732,47.883,159.486
			c31.922,47.768,73.771,83.08,125.558,105.949c-1.01-26.896,0.625-49.137,4.902-66.732l37.326-157.607
			c-6.285-12.314-9.425-27.645-9.425-45.999c0-21.365,5.404-39.217,16.212-53.538c10.802-14.333,24.003-21.5,39.59-21.5
			c12.564,0,22.246,4.143,29.034,12.448c6.787,8.292,10.184,18.727,10.184,31.292c0,7.797-1.451,17.289-4.334,28.47
			c-2.895,11.187-6.665,24.13-11.31,38.837c-4.651,14.701-7.98,26.451-9.994,35.252c-3.525,15.33-0.63,28.463,8.672,39.4
			c9.295,10.936,21.616,16.4,36.952,16.4c26.898,0,48.955-14.951,66.176-44.865c17.217-29.914,25.826-66.236,25.826-108.973
			c0-32.925-10.617-59.701-31.859-80.312c-21.242-20.606-50.846-30.918-88.795-30.918c-42.486,0-76.862,13.642-103.123,40.906
			c-26.267,27.277-39.401,59.896-39.401,97.84c0,22.625,6.414,41.609,19.229,56.941c4.272,5.029,5.655,10.428,4.149,16.205
			c-0.508,1.512-1.511,5.281-3.017,11.309c-1.505,6.029-2.515,9.934-3.017,11.689c-2.014,8.049-6.787,10.564-14.333,7.541
			c-19.357-8.043-34.064-21.99-44.113-41.85c-10.055-19.854-15.08-42.852-15.08-68.996c0-16.842,2.699-33.685,8.103-50.527
			c5.404-16.842,13.819-33.115,25.264-48.832c11.432-15.698,25.135-29.596,41.102-41.659c15.961-12.069,35.38-21.738,58.256-29.04
			c22.871-7.283,47.51-10.93,73.904-10.93c35.693,0,67.744,7.919,96.146,23.751c28.402,15.839,50.086,36.329,65.043,61.463
			c14.951,25.135,22.436,52.026,22.436,80.692c0,37.705-6.541,71.641-19.607,101.807c-13.072,30.166-31.549,53.855-55.43,71.072
			c-23.887,17.215-51.035,25.826-81.445,25.826c-15.336,0-29.664-3.58-42.986-10.748c-13.33-7.166-22.503-15.648-27.528-25.453
			c-11.31,44.486-18.097,71.018-20.361,79.555c-4.78,17.852-14.584,38.457-29.413,61.836c26.897,8.043,54.296,12.062,82.198,12.062
			c52.534,0,100.987-12.943,145.35-38.83c44.363-25.895,79.492-61.023,105.387-105.393c25.887-44.365,38.838-92.811,38.838-145.352
			c0-52.54-12.951-100.985-38.838-145.355C514.422,99.87,479.287,64.741,434.924,38.847z" />
    </symbol>
    <symbol width="20" height="2" viewBox="0 0 20 2" fill="none" id="line-icon">
        <rect y="0.5" width="20" height="1" fill="white" />
    </symbol>
    <symbol width="24" height="24" viewBox="0 0 24 24" fill="none" id="clock-icon">
        <path
            d="M12 19C15.866 19 19 15.866 19 12C19 8.13401 15.866 5 12 5C8.13401 5 5 8.13401 5 12C5 15.866 8.13401 19 12 19Z"
            stroke="white" stroke-linecap="round" stroke-linejoin="round" />
        <path d="M12.0001 11.9999L9.66675 13.5555M12.0001 8.11102V11.9999" stroke="white" stroke-linecap="round"
            stroke-linejoin="round" />
    </symbol>
    <symbol width="41" height="38" viewBox="0 0 41 38" fill="none" id="special-icon">
        <path
            d="M28.6047 38L25.1085 34.5021C26.8036 31.5342 28.2868 28.5662 29.5581 25.5983C30.8295 22.7364 31.5711 19.9275 31.7829 17.1715L23.8372 15.4226V0H41L41 11.1297C41 17.7015 39.7287 23.0014 37.186 27.0293C34.5375 31.1632 31.677 34.8201 28.6047 38ZM4.76744 38L1.27132 34.5021C2.96641 31.5342 4.44961 28.5662 5.72093 25.5983C6.99225 22.7364 7.73385 19.9275 7.94574 17.1715L0 15.4226L0 0L17.1628 0V11.1297C17.1628 17.7015 15.8915 23.0014 13.3488 27.0293C10.7003 31.1632 7.83979 34.8201 4.76744 38Z"
            fill="#A9A9A9" />
    </symbol>
    <symbol width="12" height="12" viewBox="0 0 12 12" fill="none" id="views-icon">
        <path d="M2.4 12H0V3.6H2.4V12ZM7.2 12H4.8V0H7.2V6V12ZM12 12H9.6V7.2H12V12Z" fill="white" />
    </symbol>
    <symbol width="16" height="16" viewBox="0 0 16 16" fill="none" id="baseline-facebook-icon">
        <path
            d="M14.6666 7.99998C14.6666 4.31998 11.6799 1.33331 7.99992 1.33331C4.31992 1.33331 1.33325 4.31998 1.33325 7.99998C1.33325 11.2266 3.62659 13.9133 6.66658 14.5333V9.99998H5.33325V7.99998H6.66658V6.33331C6.66658 5.04665 7.71325 3.99998 8.99992 3.99998H10.6666V5.99998H9.33325C8.96658 5.99998 8.66658 6.29998 8.66658 6.66665V7.99998H10.6666V9.99998H8.66658V14.6333C12.0333 14.3 14.6666 11.46 14.6666 7.99998Z"
            fill="white" />
    </symbol>
    <symbol width="16" height="16" viewBox="0 0 16 16" fill="none" id="baseline-twitter-icon">
        <path
            d="M14.9733 4.00002C14.4599 4.23335 13.9066 4.38669 13.3333 4.46002C13.9199 4.10669 14.3733 3.54669 14.5866 2.87335C14.0333 3.20669 13.4199 3.44002 12.7733 3.57335C12.2466 3.00002 11.5066 2.66669 10.6666 2.66669C9.09995 2.66669 7.81994 3.94669 7.81994 5.52669C7.81994 5.75335 7.84661 5.97335 7.89328 6.18002C5.51995 6.06002 3.40661 4.92002 1.99994 3.19335C1.75328 3.61335 1.61328 4.10669 1.61328 4.62669C1.61328 5.62002 2.11328 6.50002 2.88661 7.00002C2.41328 7.00002 1.97328 6.86669 1.58661 6.66669V6.68669C1.58661 8.07335 2.57328 9.23335 3.87994 9.49335C3.46043 9.60816 3.02001 9.62413 2.59328 9.54002C2.77435 10.1083 3.12897 10.6056 3.60729 10.962C4.08561 11.3183 4.66358 11.5158 5.25994 11.5267C4.24903 12.327 2.99594 12.7596 1.70661 12.7534C1.47994 12.7534 1.25328 12.74 1.02661 12.7134C2.29328 13.5267 3.79994 14 5.41328 14C10.6666 14 13.5533 9.64002 13.5533 5.86002C13.5533 5.73335 13.5533 5.61335 13.5466 5.48669C14.1066 5.08669 14.5866 4.58002 14.9733 4.00002Z"
            fill="white" />
    </symbol>
    <symbol width="16" height="16" viewBox="0 0 16 16" fill="none" id="baseline-printerest-icon">
        <path
            d="M6.02659 14.36C6.66658 14.5533 7.31325 14.6666 7.99992 14.6666C9.76803 14.6666 11.4637 13.9643 12.714 12.714C13.9642 11.4638 14.6666 9.76809 14.6666 7.99998C14.6666 7.1245 14.4941 6.25759 14.1591 5.44876C13.8241 4.63992 13.333 3.90499 12.714 3.28593C12.0949 2.66688 11.36 2.17581 10.5511 1.84078C9.7423 1.50575 8.8754 1.33331 7.99992 1.33331C7.12444 1.33331 6.25753 1.50575 5.4487 1.84078C4.63986 2.17581 3.90493 2.66688 3.28587 3.28593C2.03563 4.53618 1.33325 6.23187 1.33325 7.99998C1.33325 10.8333 3.11325 13.2666 5.62658 14.2266C5.56658 13.7066 5.50658 12.8466 5.62658 12.2533L6.39325 8.95998C6.39325 8.95998 6.19992 8.57331 6.19992 7.95998C6.19992 7.03998 6.77325 6.35331 7.42659 6.35331C7.99992 6.35331 8.26658 6.77331 8.26658 7.31331C8.26658 7.88665 7.88658 8.70665 7.69325 9.49331C7.57992 10.1466 8.03992 10.72 8.70658 10.72C9.89325 10.72 10.8133 9.45331 10.8133 7.66665C10.8133 6.06665 9.66658 4.97331 8.01992 4.97331C6.13992 4.97331 5.03325 6.37331 5.03325 7.84665C5.03325 8.41998 5.21992 8.99998 5.52659 9.37998C5.58659 9.41998 5.58659 9.47331 5.56659 9.57331L5.37325 10.3C5.37325 10.4133 5.29992 10.4533 5.18659 10.3733C4.33325 9.99998 3.83992 8.78665 3.83992 7.80665C3.83992 5.69998 5.33325 3.78665 8.21325 3.78665C10.5066 3.78665 12.2933 5.43331 12.2933 7.61998C12.2933 9.91331 10.8733 11.7533 8.83992 11.7533C8.19325 11.7533 7.55992 11.4066 7.33325 11L6.88658 12.58C6.73325 13.1533 6.31325 13.92 6.02659 14.38V14.36Z"
            fill="white" />
    </symbol>


    <symbol width="19" height="18" viewBox="0 0 19 18" fill="none" id="instagram-icon">
        <path fill-rule="evenodd" clip-rule="evenodd"
            d="M13.8359 0H4.83594C2.36116 0 0.335938 2.02432 0.335938 4.5V13.5C0.335938 15.9748 2.36116 18 4.83594 18H13.8359C16.3107 18 18.3359 15.9748 18.3359 13.5V4.5C18.3359 2.02432 16.3107 0 13.8359 0ZM9.33594 12.7499C7.26459 12.7499 5.58586 11.0704 5.58586 9C5.58586 6.92865 7.26459 5.24993 9.33594 5.24993C11.4064 5.24993 13.086 6.92865 13.086 9C13.086 11.0704 11.4064 12.7499 9.33594 12.7499ZM13.086 4.12492C13.086 4.74615 13.5891 5.24992 14.211 5.24992C14.8329 5.24992 15.336 4.74615 15.336 4.12492C15.336 3.5037 14.8329 2.99992 14.211 2.99992C13.5891 2.99992 13.086 3.5037 13.086 4.12492Z"
            fill="black" />
    </symbol>

    <symbol width="10" height="18" viewBox="0 0 10 18" fill="none" id="facebook-icon">
        <path
            d="M6.065 17.9972V9.80115H8.83L9.241 6.59215H6.065V4.54815C6.065 3.62215 6.323 2.98815 7.652 2.98815H9.336V0.12715C8.517 0.03915 7.693 -0.00285004 6.869 0.000149963C4.425 0.000149963 2.747 1.49215 2.747 4.23115V6.58615H0V9.79515H2.753V17.9972H6.065Z"
            fill="black" />
    </symbol>


    <symbol viewBox="0 0 24 24" id="twitter-icon">
        <path
            d="M22,5.8a8.49,8.49,0,0,1-2.36.64,4.13,4.13,0,0,0,1.81-2.27,8.21,8.21,0,0,1-2.61,1,4.1,4.1,0,0,0-7,3.74A11.64,11.64,0,0,1,3.39,4.62a4.16,4.16,0,0,0-.55,2.07A4.09,4.09,0,0,0,4.66,10.1,4.05,4.05,0,0,1,2.8,9.59v.05a4.1,4.1,0,0,0,3.3,4A3.93,3.93,0,0,1,5,13.81a4.9,4.9,0,0,1-.77-.07,4.11,4.11,0,0,0,3.83,2.84A8.22,8.22,0,0,1,3,18.34a7.93,7.93,0,0,1-1-.06,11.57,11.57,0,0,0,6.29,1.85A11.59,11.59,0,0,0,20,8.45c0-.17,0-.35,0-.53A8.43,8.43,0,0,0,22,5.8Z">
        </path>
    </symbol>

    <symbol width="18" height="18" viewBox="0 0 18 18" fill="none" id="preview-btn-icon">
        <path d="M11.9998 5H12.0091" stroke="white" stroke-linecap="round" stroke-linejoin="round" />
        <path
            d="M14 1H4C2.34315 1 1 2.34315 1 4V14C1 15.6569 2.34315 17 4 17H14C15.6569 17 17 15.6569 17 14V4C17 2.34315 15.6569 1 14 1Z"
            stroke="white" stroke-linecap="round" stroke-linejoin="round" />
        <path
            d="M1 12.0001L5 8.00007C5.45606 7.56123 5.97339 7.3302 6.5 7.3302C7.02661 7.3302 7.54394 7.56123 8 8.00007L13 13.0001"
            stroke="white" stroke-linecap="round" stroke-linejoin="round" />
        <path
            d="M11.0002 11L12.0002 9.99995C12.4562 9.56111 12.9736 9.33008 13.5002 9.33008C14.0268 9.33008 14.5441 9.56111 15.0002 9.99995L17.0002 12"
            stroke="white" stroke-linecap="round" stroke-linejoin="round" />
    </symbol>

    <symbol width="13" height="16" viewBox="0 0 13 16" fill="none" id="polygone-icon">
        <path
            d="M12.1625 7.71854C12.3792 7.84363 12.3792 8.15636 12.1625 8.28146L1.6625 14.3436C1.44583 14.4687 1.175 14.3124 1.175 14.0622L1.175 1.93782C1.175 1.68764 1.44583 1.53127 1.6625 1.65636L12.1625 7.71854Z"
            stroke="white" stroke-width="1.35" />
    </symbol>




    <symbol width="33" height="18" viewBox="0 0 33 18" id="burger-icon">
        <line x1="0" y1="2" x2="33" y2="2" stroke="#fff" stroke-width="3" />
        <line x1="0" y1="9" x2="33" y2="9" stroke="#fff" stroke-width="3" />
        <line x1="0" y1="16" x2="33" y2="16" stroke="#fff" stroke-width="3" />
    </symbol>

    <symbol width="25" height="22" viewBox="0 0 25 22" id="cross-icon">
        <line x1="0" y1="0" x2="25" y2="22" stroke="#000" stroke-width="3" />
        <line x1="0" y1="22" x2="25" y2="0" stroke="#000" stroke-width="3" />
    </symbol>


    <symbol viewBox="0 0 512.000000 512.000000" <g transform="translate(0.000000,512.000000) scale(0.100000,-0.100000)"
        fill="#000000" stroke="none">
        <path d="M2435 4739 c-502 -63 -885 -475 -885 -954 l0 -103 -187 -4 c-179 -3
-191 -4 -245 -30 -116 -54 -197 -158 -218 -278 -17 -102 -192 -2609 -186
-2669 12 -122 114 -255 234 -303 l57 -23 1555 0 1555 0 57 23 c120 48 222 181
234 303 6 60 -169 2566 -186 2668 -6 35 -20 82 -32 104 -33 67 -112 141 -181
173 -60 28 -68 29 -249 32 l-188 4 0 81 c-1 242 -110 497 -290 678 -172 173
-368 269 -610 299 -96 11 -135 11 -235 -1z m300 -335 c291 -74 515 -357 515
-651 l0 -73 -690 0 -690 0 0 73 c0 41 9 108 19 149 96 374 472 597 846 502z
m-1180 -1466 l-7 -423 23 -34 c34 -49 70 -72 121 -78 58 -7 118 23 149 74 l24
38 3 423 3 422 689 0 689 0 3 -422 3 -423 24 -38 c31 -51 91 -81 149 -74 50 5
87 29 120 77 22 33 22 34 22 456 l0 424 155 0 c149 0 155 -1 169 -22 11 -17
37 -340 106 -1317 l92 -1295 -22 -18 c-21 -17 -90 -18 -1510 -18 -1420 0
-1489 1 -1510 18 l-22 18 92 1295 c69 977 95 1300 106 1317 14 21 19 22 175
22 l161 0 -7 -422z" />
        </g>
    </symbol>

    <symbol width="117" height="44" viewBox="0 0 117 44" fill="none" id="logo-icon">
        <mask id="mask0_422_23059" style="mask-type:luminance" maskUnits="userSpaceOnUse" x="5" y="7" width="29"
            height="32">
            <path d="M5.83447 7.06567H33.5635V38.0898H5.83447V7.06567Z" fill="white" />
        </mask>
        <g mask="url(#mask0_422_23059)">
            <path
                d="M7.16986 14.2829C7.30453 16.074 7.62055 19.139 8.32999 22.1859C8.81846 24.2868 9.49304 26.3817 10.4186 28.03C11.7934 30.4799 13.7156 32.4274 15.5261 33.8817C17.1715 35.2037 18.7248 36.121 19.7019 36.6413C20.6743 36.124 22.2231 35.2096 23.8686 33.8892C25.6774 32.4365 27.6028 30.4858 28.9821 28.03C29.9032 26.3847 30.5778 24.2913 31.0648 22.1888C31.7725 19.1405 32.0901 16.074 32.2248 14.2829C30.4582 13.4722 29.206 12.4014 28.3242 11.2961C27.5165 10.284 27.0144 9.24181 26.7059 8.34999H12.6948C12.3303 9.40263 11.6981 10.6644 10.6061 11.839C9.76519 12.7474 8.64601 13.606 7.16986 14.2829ZM7.08674 22.4686C6.29577 19.0623 5.97963 15.6529 5.8647 13.9234L5.83447 13.4708L6.2564 13.2948C7.75364 12.6736 8.85783 11.8495 9.66537 10.9788C10.7635 9.79673 11.3291 8.52135 11.6165 7.53779L11.751 7.07764H27.6481L27.7843 7.53779C28.0339 8.39204 28.4936 9.46734 29.3225 10.5051C30.1557 11.5473 31.3733 12.5609 33.1383 13.2948L33.5602 13.4708L33.53 13.9234C33.415 15.6529 33.0974 19.0652 32.3079 22.4716C31.7982 24.6749 31.0828 26.8826 30.0953 28.6466C28.6222 31.2709 26.5804 33.3433 24.6672 34.8788C22.7645 36.4067 20.9738 37.4189 19.9938 37.9212L19.7003 38.07L19.41 37.9212C18.4239 37.4159 16.6316 36.4008 14.7274 34.8713C12.8112 33.3328 10.7725 31.2634 9.30547 28.6466C8.31475 26.8795 7.59788 24.6703 7.08674 22.4686Z"
                fill="white" />
        </g>
        <path
            d="M19.3264 12.6876H21.8653C24.5368 12.5296 25.2247 12.5034 25.6215 12.5034H26.0447C31.3082 12.5034 34.0592 13.9499 34.0592 16.6854C34.0592 18.0267 33.4244 19.0001 32.1813 19.6312C31.335 20.052 30.7266 20.3152 29.0072 20.657C30.7266 20.8673 31.4671 21.1306 32.446 21.6303C34.0328 22.498 34.9059 23.9445 34.9059 25.6281C34.9059 26.601 34.5618 27.5744 33.9534 28.2845C32.7634 29.6787 31.0966 30.2308 27.8435 30.2308H19.3264V29.8624C20.1464 29.5207 20.3843 29.0999 20.3843 28.1265V14.7919C20.3843 13.8186 20.1464 13.3978 19.3264 13.056V12.6876ZM24.6957 20.3414H25.9125C28.7425 20.3414 30.1709 19.1314 30.1709 16.7116C30.1709 14.5025 28.7956 13.1874 26.5473 13.1874C25.1984 13.1874 24.6957 13.6082 24.6957 14.7391V20.3414ZM24.6957 21.2096V28.1003C24.6957 29.1789 25.2247 29.5735 26.6267 29.5735C27.3409 29.5735 27.9225 29.4683 28.3988 29.2841C29.6951 28.7315 30.6208 27.1008 30.6208 25.3125C30.6208 22.6032 29.0598 21.2096 26.0183 21.2096H24.6957Z"
            fill="white" />
        <path
            d="M51.7 31.4147V31.993C46.4896 30.0205 43.9239 27.2851 42.6539 22.1302C42.4687 22.1564 42.3102 22.1564 42.2308 22.1564H41.8871C41.5697 22.1564 41.305 22.1564 40.8024 22.0774V28.1266C40.8024 29.1 41.0403 29.5208 41.8603 29.8625V30.2309H35.4067V29.8625C36.2267 29.5208 36.4646 29.1 36.4646 28.1266V14.792C36.4646 13.8187 36.2267 13.3979 35.4067 13.0561V12.6877H37.443C37.893 12.6877 38.713 12.6616 39.7972 12.5825C41.0671 12.5035 42.5218 12.4512 43.3944 12.4512C48.288 12.4512 50.9594 14.1604 50.9594 17.2905C50.9594 18.6579 50.351 19.9207 49.2137 20.7623C48.7379 21.1307 47.8911 21.4986 46.7011 21.867C48.1822 26.7329 50.0074 30.3623 51.7 31.4147ZM40.8024 15.0286V21.262C41.1466 21.2882 41.3845 21.3149 41.5697 21.3149H42.125C45.1138 21.3149 46.648 19.9469 46.648 17.3166C46.648 15.0024 44.8496 13.1875 42.6276 13.1875C41.3313 13.1875 40.8024 13.6873 40.8024 15.0286Z"
            fill="white" />
        <path
            d="M53.92 24.6023L52.809 28.1264C52.7295 28.3107 52.7032 28.521 52.7032 28.7052C52.7032 29.3102 53.1 29.652 54.2373 29.889V30.2308H49.688V29.889C50.7195 29.5996 51.2485 29.1522 51.6453 28.1264L56.7767 12.5295H60.1624L65.1881 28.1264C65.5317 29.0998 66.008 29.6786 66.6428 29.889V30.2308H60.1887V29.889C60.7971 29.6786 61.035 29.4154 61.035 28.8894C61.035 28.6791 60.9824 28.4158 60.8766 28.1264L59.7393 24.6023H53.92ZM54.3431 23.5499H59.3951L56.8562 15.791L54.3431 23.5499Z"
            fill="white" />
        <path
            d="M74.4706 30.2307H71.1117L65.9271 14.7918C65.5834 13.8184 65.1335 13.3186 64.4724 13.0293V12.6875H70.9001V13.0293C70.3707 13.2396 70.1065 13.5819 70.1065 14.0288C70.1065 14.2654 70.1591 14.5024 70.2649 14.7918L74.3916 27.2587L78.3325 14.7918C78.3857 14.6076 78.412 14.4234 78.412 14.2392C78.412 13.5819 78.0415 13.2663 76.9042 13.0293V12.6875H81.3214V13.0293C80.3693 13.3186 79.8136 13.8184 79.4699 14.7918L74.4706 30.2307Z"
            fill="white" />
        <path
            d="M93.487 12.6875L93.7781 16.0541H93.1697C92.3497 14.1602 91.186 13.3448 89.0961 13.3448H87.6678C86.4246 13.3448 85.922 13.7656 85.922 14.818V20.078H88.3293C90.0219 20.078 90.8682 19.5259 91.0534 18.2636H91.6092V22.7611H91.0534C90.974 21.4198 90.2071 20.841 88.3293 20.841H85.922V27.8898C85.922 29.2311 86.3983 29.5734 88.1704 29.5734H89.4666C91.9266 29.5734 93.3281 28.6262 94.1749 26.3905L94.7302 26.6009L93.7781 30.2307H80.5264V29.8623C81.3463 29.5205 81.5842 29.0998 81.5842 28.1264V14.7918C81.5842 13.8184 81.3463 13.3977 80.5264 13.0559V12.6875H93.487Z"
            fill="white" />
        <path
            d="M111.286 31.4147V31.993C106.076 30.0205 103.51 27.2851 102.24 22.1302C102.055 22.1564 101.897 22.1564 101.817 22.1564H101.474C101.156 22.1564 100.891 22.1564 100.389 22.0774V28.1266C100.389 29.1 100.627 29.5208 101.447 29.8625V30.2309H94.9932V29.8625C95.8131 29.5208 96.051 29.1 96.051 28.1266V14.792C96.051 13.8187 95.8131 13.3979 94.9932 13.0561V12.6877H97.0295C97.4794 12.6877 98.2994 12.6616 99.3836 12.5825C100.654 12.5035 102.108 12.4512 102.981 12.4512C107.874 12.4512 110.546 14.1604 110.546 17.2905C110.546 18.6579 109.937 19.9207 108.8 20.7623C108.324 21.1307 107.478 21.4986 106.288 21.867C107.769 26.7329 109.594 30.3623 111.286 31.4147ZM100.389 15.0286V21.262C100.733 21.2882 100.971 21.3149 101.156 21.3149H101.711C104.7 21.3149 106.234 19.9469 106.234 17.3166C106.234 15.0024 104.436 13.1875 102.214 13.1875C100.918 13.1875 100.389 13.6873 100.389 15.0286Z"
            fill="white" />
        <mask id="mask1_422_23059" style="mask-type:luminance" maskUnits="userSpaceOnUse" x="15" y="12" width="5"
            height="5">
            <path d="M15.3503 12.3884H19.2602V16.4041H15.3503V12.3884Z" fill="white" />
        </mask>
        <g mask="url(#mask1_422_23059)">
            <path
                d="M15.9919 13.1404L16.033 13.2591C16.0761 13.4244 16.1349 13.5839 16.1876 13.7453L16.2191 13.8211L16.2269 13.8581C16.2425 13.893 16.2563 13.93 16.268 13.9669L16.3483 14.0039C16.4461 14.0215 16.5461 14.0234 16.642 14.0389C16.7888 14.0584 16.9279 14.1128 17.0728 14.1361C17.2177 14.1595 17.3782 14.1984 17.527 14.2412C17.5428 14.354 17.5545 14.4688 17.5858 14.5795C17.6171 14.6904 17.6289 14.8286 17.6642 14.9492C17.6994 15.0697 17.7151 15.1824 17.7367 15.2991L17.7581 15.3595C17.7738 15.4548 17.7954 15.55 17.813 15.6454C17.906 15.6894 17.996 15.7386 18.0832 15.7931C18.3496 15.9545 18.6159 16.116 18.8939 16.256C18.9977 16.3143 19.1074 16.3669 19.2249 16.3941C19.3424 16.4213 19.4696 16.33 19.5851 16.2793C19.8201 16.1705 20.0374 16.0304 20.2646 15.9059C20.3821 15.8339 20.4957 15.7563 20.6151 15.6901C20.6601 15.6625 20.7019 15.6307 20.7405 15.5948C20.7582 15.4689 20.7829 15.3445 20.8149 15.2213C20.8658 15.0152 20.9187 14.8091 20.9539 14.599L20.9656 14.5446C20.9852 14.4649 20.9911 14.3851 21.0127 14.3073L21.0185 14.2509C21.1125 14.2081 21.2163 14.1945 21.3181 14.175C21.4552 14.142 21.5943 14.1167 21.7314 14.0798C21.9193 14.0312 22.1152 14.0155 22.305 13.9727C22.3364 13.8308 22.3931 13.6967 22.4303 13.5546C22.4989 13.364 22.5479 13.1696 22.6086 12.9771C22.6477 12.8934 22.6477 12.7864 22.7182 12.7222C22.8572 12.6659 22.9983 12.6114 23.1334 12.5414V12.3916C22.9356 12.4266 22.732 12.4247 22.5342 12.4655C22.3364 12.5064 22.0994 12.5005 21.886 12.5433C21.6725 12.5861 21.4787 12.5687 21.279 12.6037C21.1693 12.6016 21.0617 12.6308 20.952 12.6289L20.9304 12.6445L20.7678 12.6523C20.6857 12.6697 20.6015 12.6697 20.5211 12.6892C20.4408 12.7086 20.3233 12.6989 20.2255 12.7164C20.0022 12.734 19.775 12.7417 19.5538 12.7787C19.4696 12.7826 19.3873 12.7864 19.3051 12.7961C18.9839 12.7864 18.6647 12.734 18.3456 12.7203C18.2144 12.7028 18.0793 12.7067 17.952 12.6717C17.5918 12.6562 17.2372 12.5784 16.875 12.5667C16.7497 12.5491 16.6243 12.5453 16.501 12.5141C16.3267 12.5025 16.1544 12.4772 15.9801 12.4675C15.7844 12.4266 15.5846 12.415 15.3868 12.4131L15.3613 12.5064C15.5356 12.6134 15.7295 12.6814 15.9038 12.7864C15.9213 12.9051 15.9625 13.0218 15.9919 13.1404Z"
                fill="white" />
        </g>
        <mask id="mask2_422_23059" style="mask-type:luminance" maskUnits="userSpaceOnUse" x="11" y="13" width="9"
            height="18">
            <path d="M11.3276 13.8911H19.2602V30.3281H11.3276V13.8911Z" fill="white" />
        </mask>
        <g mask="url(#mask2_422_23059)">
            <path
                d="M26.7443 22.8275C26.5916 22.701 26.4879 22.526 26.3331 22.4016C26.1687 22.2285 25.9983 22.0593 25.8241 21.896C25.6869 21.7501 25.5401 21.61 25.403 21.4642C25.4304 21.3903 25.4872 21.332 25.5225 21.2619C25.6066 21.1044 25.7202 20.9623 25.8025 20.8049C25.8848 20.6474 25.9807 20.5481 26.0493 20.4081C26.1178 20.268 26.2098 20.1281 26.3077 19.9997C26.4154 19.8403 26.5133 19.675 26.619 19.5135C26.713 19.389 26.7816 19.249 26.8795 19.1265C26.9774 19.0039 27.0831 18.8251 27.1928 18.6811L27.187 18.6499C27.0577 18.5975 26.946 18.51 26.8149 18.4614C26.5584 18.3213 26.2882 18.2085 26.0258 18.0782C25.7241 17.9284 25.4109 17.8078 25.1191 17.6425C24.9957 17.5862 24.8723 17.5297 24.7431 17.4811C24.7431 17.7689 24.7901 18.0548 24.7803 18.3427C24.7278 18.2843 24.6795 18.2228 24.6354 18.1579C24.5375 18.0062 24.4004 17.8837 24.2966 17.7359C24.1929 17.5881 24.0597 17.4383 23.9618 17.2749C23.8212 17.0999 23.6906 16.9178 23.5702 16.7285C23.4527 16.5671 23.3254 16.4115 23.2137 16.2462C23.112 16.1177 23.0023 16.0011 22.9122 15.8669L22.971 15.8378L23.0219 15.8338L23.0414 15.8202C23.0958 15.8114 23.1493 15.799 23.202 15.7832C23.3137 15.7561 23.4273 15.7424 23.5349 15.7054C23.7072 15.6724 23.8776 15.6218 24.0519 15.5966C24.2262 15.5713 24.3633 15.5207 24.5199 15.4896L24.5728 15.4799C24.646 15.4602 24.7205 15.4465 24.796 15.4391C24.8058 15.6919 24.8548 15.9427 24.8587 16.1975C24.89 16.5087 24.9194 16.8179 24.939 17.1292C24.9703 17.1874 24.9997 17.2517 25.0584 17.2846C25.1172 17.3177 25.2053 17.3216 25.2777 17.345C25.3502 17.3683 25.4716 17.3916 25.5558 17.4461L25.6439 17.4499C25.6843 17.419 25.7267 17.3912 25.7712 17.3663L25.7908 17.308C25.7673 17.2167 25.7595 17.1213 25.7418 17.0299C25.6988 16.8568 25.6988 16.6779 25.6576 16.5048C25.6445 16.4484 25.638 16.3915 25.638 16.3337L25.6224 16.3122C25.6086 16.0964 25.5617 15.8844 25.5401 15.6685C25.5301 15.556 25.5132 15.4445 25.4891 15.334C25.4755 15.2057 25.4617 15.0773 25.4403 14.9509C25.4226 14.8712 25.3541 14.8244 25.2915 14.7797C25.1024 14.6243 24.9262 14.4559 24.7626 14.2741C24.6354 14.1593 24.5238 14.031 24.4004 13.9123L24.2829 13.9337C24.0676 13.9921 23.8424 13.9998 23.6329 14.0776L23.5839 14.0854C23.2843 14.1768 22.9768 14.2429 22.6753 14.3304C22.5069 14.379 22.3365 14.4239 22.1661 14.4647L22.127 14.4783C22.0369 14.5016 21.9449 14.5191 21.8548 14.5366C21.7177 14.5892 21.565 14.5813 21.4318 14.6475L21.426 14.7117C21.3946 14.8964 21.3672 15.0812 21.3202 15.262C21.3124 15.3535 21.2908 15.4449 21.2888 15.5363L21.3437 15.5479C21.5199 15.6822 21.6747 15.8436 21.8391 15.9913C21.9684 16.0964 22.078 16.2209 22.2034 16.3298C22.3287 16.4386 22.4148 16.5106 22.5147 16.606C22.6557 16.7324 22.7908 16.8646 22.9416 16.9794C23.0924 17.0941 23.2412 17.1991 23.3666 17.3372C23.4331 17.4052 23.4644 17.4948 23.5251 17.5666C23.5858 17.6386 23.6171 17.7418 23.6798 17.8215C23.7424 17.9012 23.811 18.0296 23.8815 18.1307C23.9521 18.2318 24.0108 18.3368 24.0851 18.4322C24.2359 18.6227 24.3594 18.8328 24.5043 19.0273C24.6138 19.1692 24.6922 19.3307 24.8058 19.4687C24.8861 19.5602 24.9488 19.6651 25.0211 19.7625C24.9311 19.8693 24.841 19.9763 24.747 20.0795C24.5669 20.307 24.375 20.5268 24.1851 20.7465C23.9951 20.9974 23.7679 21.2172 23.5839 21.4719C23.4802 21.6022 23.3685 21.7228 23.2705 21.8571C23.1727 21.9912 23.0708 22.0748 22.9827 22.1935C22.828 22.3899 22.6596 22.5766 22.5147 22.7808C22.4481 22.8897 22.4285 23.0161 22.3777 23.1309C22.3404 23.2164 22.3228 23.3078 22.2857 23.3916C22.2269 23.5665 22.176 23.7454 22.1054 23.9167L22.0996 23.9535L22.0682 24.0313C22.0428 24.111 22.0212 24.1908 21.9918 24.2686L21.9801 24.3036C21.9292 24.4689 21.8607 24.6284 21.8039 24.7918C21.7471 24.9551 21.708 25.0776 21.6609 25.2216L21.6374 25.278C21.6041 25.3947 21.6061 25.5153 21.5826 25.6339C21.5748 25.7195 21.5767 25.807 21.5709 25.8944L21.5748 25.8789C21.5493 26.1279 21.5532 26.3808 21.4925 26.6239C21.4063 26.5927 21.3378 26.5304 21.2614 26.4799C21.1932 26.4319 21.1305 26.3774 21.0735 26.3165C20.7875 26.4923 20.4872 26.6394 20.1727 26.758C19.9867 26.8513 19.7948 26.9253 19.6068 27.0128C19.5011 27.0517 19.4051 27.1178 19.2935 27.1392C19.2171 27.1334 19.1505 27.0945 19.0821 27.0652C18.9136 26.9836 18.7335 26.9272 18.5709 26.8358C18.2262 26.6919 17.866 26.5635 17.5664 26.3359C17.4352 26.4196 17.2961 26.4974 17.1747 26.5947C17.1278 26.5577 17.0827 26.5227 17.0358 26.4877C17.0123 26.1104 17.0004 25.733 16.9535 25.3596L16.9378 25.3422V25.2838C16.8751 25.1322 16.8399 24.9688 16.7773 24.8171L16.7361 24.7198C16.6773 24.5254 16.6069 24.3328 16.5404 24.1403L16.5011 24.0392C16.4678 23.9477 16.4424 23.8544 16.4032 23.7649C16.3895 23.7202 16.3778 23.6734 16.3661 23.6287L16.3386 23.5958C16.3207 23.5211 16.2953 23.4491 16.2622 23.3798C16.2171 23.2281 16.1644 23.0784 16.1115 22.9286C16.0703 22.81 15.994 22.7108 15.9117 22.6174C15.7962 22.4852 15.6983 22.3373 15.5808 22.2051C15.3556 21.9465 15.1403 21.682 14.9287 21.4136C14.5821 20.9877 14.2199 20.5773 13.8674 20.1552C13.7577 20.0249 13.6402 19.9005 13.5404 19.7644C13.6637 19.5873 13.8106 19.4279 13.9183 19.2412C14.0162 19.0973 14.1239 18.9592 14.216 18.8114C14.3256 18.6207 14.4803 18.4633 14.5919 18.2746C14.6762 18.156 14.7485 18.0315 14.8386 17.9168C14.9287 17.802 15.0051 17.6406 15.0893 17.5045C15.2107 17.2983 15.4163 17.1679 15.5945 17.0163C15.761 16.8977 15.8921 16.7401 16.0527 16.6157C16.272 16.4115 16.4933 16.2112 16.7087 16.0031C16.8967 15.8378 17.0729 15.6607 17.2707 15.509C17.2531 15.4176 17.2414 15.3243 17.2257 15.2329C17.1728 15.0384 17.1611 14.8362 17.1101 14.6397C17.0024 14.6066 16.8889 14.5931 16.7792 14.5755C16.6695 14.558 16.511 14.5172 16.3778 14.4802C16.1957 14.4297 16.0115 14.3869 15.8295 14.3343L15.7805 14.313C15.7217 14.2954 15.661 14.2818 15.6023 14.2663C15.4809 14.2216 15.3537 14.204 15.2323 14.1671C15.1109 14.1301 14.9679 14.103 14.8406 14.0562C14.6786 14.0135 14.5148 13.9798 14.349 13.9551L14.2708 13.9337C14.2385 13.9242 14.206 13.9165 14.1728 13.9104C14.0456 14.0037 13.9417 14.1262 13.8283 14.2371C13.6696 14.3908 13.5227 14.5561 13.3543 14.7019C13.2878 14.7564 13.2349 14.8284 13.1625 14.8789C13.1331 14.9041 13.0899 14.9256 13.0938 14.9684C13.0919 15.0656 13.086 15.1629 13.086 15.2581L13.0704 15.2835C13.0684 15.3884 13.0351 15.4877 13.0273 15.5907C13.0156 15.6646 13.0137 15.7385 12.996 15.8124C12.9937 15.8642 12.9871 15.9153 12.9764 15.9661C12.947 16.1392 12.9294 16.3161 12.8981 16.4893C12.8668 16.6623 12.8452 16.7829 12.8276 16.9327C12.8094 16.9904 12.7977 17.0494 12.7923 17.1096C12.7806 17.2302 12.7513 17.3508 12.7513 17.4733L12.8804 17.4189C13.0293 17.3975 13.186 17.3955 13.3269 17.3372L13.37 17.3294L13.5071 17.2885L13.5579 17.2691C13.5717 17.1038 13.6128 16.9424 13.6225 16.7771C13.6461 16.5379 13.6873 16.2987 13.7029 16.0575C13.7186 15.8163 13.7322 15.6336 13.7558 15.4234C13.8164 15.4429 13.8791 15.4604 13.9417 15.478C14.165 15.5246 14.3883 15.5732 14.6134 15.616C14.8386 15.6588 15.1148 15.7405 15.3693 15.7813L15.428 15.8047C15.5015 15.8227 15.576 15.8357 15.6513 15.8436C15.5976 15.9221 15.5389 15.9967 15.475 16.0672C15.3144 16.2909 15.1461 16.5067 14.9835 16.7285C14.8211 16.9502 14.6565 17.17 14.5097 17.4033C14.4412 17.5006 14.357 17.5881 14.2883 17.6853C14.2014 17.8057 14.1074 17.9205 14.0064 18.0296C13.9104 18.1365 13.838 18.2611 13.7342 18.3621C13.7342 18.1949 13.7636 18.0296 13.7871 17.8643C13.7945 17.7344 13.8095 17.6053 13.8322 17.4772C13.65 17.5589 13.4562 17.6192 13.2839 17.7203C13.1115 17.8215 12.9079 17.8934 12.7179 17.9771C12.528 18.0607 12.3263 18.1773 12.1226 18.263C11.8505 18.3776 11.5959 18.5255 11.3276 18.6461C11.3864 18.7219 11.4353 18.8056 11.4881 18.8853C11.5861 19.0253 11.6801 19.1673 11.7721 19.3092C11.8192 19.3812 11.8818 19.4435 11.9229 19.5193C12.06 19.7799 12.2479 20.0094 12.3948 20.2642C12.5416 20.5189 12.6846 20.7446 12.8433 20.9799C12.9215 21.1141 13.0254 21.2327 13.0977 21.3709C13.1115 21.4038 13.1487 21.4369 13.1271 21.4739C13.0664 21.5789 12.9705 21.6548 12.8843 21.7384C12.712 21.9115 12.5338 22.0807 12.3596 22.2518C12.2911 22.3315 12.2205 22.4093 12.1442 22.4832C12.0678 22.5572 11.9836 22.6739 11.8896 22.7556C11.7956 22.8372 11.684 22.9772 11.5607 23.0647L11.5548 23.1212C11.6449 23.1367 11.733 23.1601 11.8231 23.1775C11.9131 23.1951 12.06 23.2261 12.1775 23.2592L12.2362 23.2807C12.3282 23.3001 12.4183 23.3254 12.5103 23.3507C12.6023 23.3759 12.7101 23.3817 12.804 23.4148C13.0156 23.479 13.2349 23.516 13.4503 23.5685L13.5266 23.5898C13.6134 23.6039 13.699 23.6233 13.7832 23.6482C13.8448 23.665 13.9075 23.6766 13.9711 23.6833C13.7968 23.9711 13.7048 24.2978 13.5404 24.5914C13.5149 24.6362 13.4718 24.6868 13.5051 24.7393C13.5991 24.9143 13.6813 25.0972 13.7616 25.2799C13.9458 25.5542 14.1141 25.84 14.2883 26.1201C14.4705 26.3613 14.6017 26.6336 14.7799 26.8786C14.84 26.9927 14.9013 27.1061 14.9639 27.2189C14.9718 26.9681 14.966 26.7191 14.9738 26.4683C14.9894 26.3477 14.9855 26.2252 14.9953 26.1026C15.0129 26.015 14.9992 25.9275 15.0207 25.84C15.0364 25.5172 15.0541 25.1963 15.0775 24.8734C15.0835 24.8365 15.0775 24.7937 15.1069 24.7666C15.2087 24.64 15.3399 24.5428 15.4535 24.4281C15.5671 24.3133 15.663 24.2492 15.7571 24.1461C15.851 24.0431 15.9313 23.9963 16.0156 23.9186C16.0115 23.9846 16.0135 24.0528 15.9959 24.1169C15.9813 24.1988 15.9708 24.2811 15.9646 24.364C15.9254 24.4709 15.9195 24.5856 15.8979 24.6965C15.8901 24.7236 15.8823 24.749 15.8745 24.7762L15.8706 24.8345L15.8549 24.8579C15.8432 24.9863 15.8197 25.1146 15.802 25.241L15.7785 25.3188C15.759 25.4219 15.7433 25.5269 15.7198 25.63C15.6964 25.733 15.6767 25.8984 15.6493 26.0307C15.6288 26.1036 15.6125 26.1775 15.6003 26.2523C15.5808 26.4294 15.526 26.6005 15.4927 26.7755L15.4711 26.8339C15.4515 26.9117 15.434 26.9895 15.4163 27.0692L15.3928 27.1275C15.383 27.1858 15.3634 27.2442 15.3615 27.3025C15.3908 27.4134 15.4574 27.5087 15.5103 27.6079C15.5632 27.7071 15.6376 27.8355 15.6923 27.954C15.7566 28.0492 15.812 28.149 15.8588 28.2536C15.9528 28.3975 16.0156 28.5589 16.1154 28.697C16.2152 28.8351 16.2759 28.9926 16.3581 29.1385C16.3922 29.2087 16.4299 29.2768 16.4717 29.3427L16.4836 29.3778C16.5736 29.51 16.6402 29.6578 16.7244 29.7939C16.7322 29.7395 16.7419 29.685 16.7538 29.6325L16.7773 29.5566C16.7831 29.5314 16.789 29.5042 16.7948 29.4788L16.8125 29.4167L16.8261 29.403C16.8422 29.2961 16.8644 29.1904 16.8928 29.0859C16.9261 28.9732 16.9358 28.8546 16.979 28.7437L17.0298 28.5511C17.2961 28.7729 17.5742 28.9829 17.8543 29.1852C17.9325 29.2435 17.9932 29.3213 18.0735 29.3758C18.1539 29.4302 18.2674 29.5313 18.3731 29.5975C18.4577 29.6504 18.5354 29.7121 18.6061 29.7823C18.7296 29.899 18.8804 29.9865 19.0076 30.1012C19.0977 30.1712 19.1799 30.2529 19.268 30.3248C19.3326 30.2704 19.3933 30.2101 19.46 30.1576C19.6499 30.0156 19.8242 29.8562 20.0142 29.7142C20.1492 29.5917 20.3079 29.5003 20.4429 29.3797C20.5781 29.2591 20.7602 29.1229 20.9266 29.0043C21.1205 28.8526 21.3163 28.7029 21.5199 28.5648C21.5395 28.6426 21.5572 28.7184 21.5787 28.7962L21.6022 28.8546C21.6179 28.9382 21.6296 29.0238 21.6512 29.1074C21.7001 29.2241 21.706 29.3524 21.7315 29.4769L21.751 29.5372C21.7706 29.6209 21.7862 29.7064 21.8039 29.792L21.8333 29.7823C21.8529 29.7298 21.8776 29.6799 21.9077 29.6325C22.0311 29.4672 22.1074 29.2746 22.2112 29.0977C22.315 28.9206 22.4325 28.697 22.552 28.5025C22.7712 28.0844 23.012 27.678 23.2137 27.2501C23.1903 27.2034 23.1688 27.1567 23.1472 27.1081C23.0904 26.8961 23.0395 26.6802 22.9945 26.4663C22.9612 26.3301 22.9573 26.1901 22.922 26.0539C22.8867 25.9178 22.8731 25.7409 22.83 25.5892C22.7869 25.4374 22.785 25.3325 22.7576 25.204C22.7301 25.0757 22.7203 24.928 22.6811 24.7937C22.642 24.6595 22.6381 24.4786 22.595 24.3231C22.552 24.1675 22.546 24.0489 22.5323 23.9107C22.6322 24.0003 22.7301 24.0917 22.8358 24.1714C22.9474 24.2939 23.0826 24.3911 23.2001 24.5078C23.2999 24.5953 23.388 24.6965 23.4919 24.7782C23.4919 24.959 23.5134 25.138 23.5154 25.3188C23.5295 25.4468 23.5354 25.5752 23.5329 25.7039L23.5506 25.7253C23.5506 25.8206 23.5467 25.9178 23.5623 26.0112C23.5917 26.4118 23.5917 26.8124 23.5956 27.2131C23.6193 27.187 23.6396 27.1586 23.6564 27.1275C23.6858 27.0128 23.7523 26.9136 23.813 26.8144C23.9188 26.6316 24.0499 26.4625 24.1517 26.2757C24.3182 26.0462 24.4572 25.7992 24.6099 25.5619C24.6648 25.486 24.6981 25.3966 24.7548 25.3207C24.8743 25.1632 24.9213 24.9688 25.0075 24.7937C25.0271 24.7509 25.0505 24.7062 25.0388 24.6576C25.0271 24.609 24.9762 24.5293 24.9507 24.4631C24.9252 24.3969 24.8782 24.3152 24.8508 24.2395C24.8077 24.0839 24.7079 23.9516 24.657 23.798L24.6021 23.6833C24.7509 23.6502 24.8998 23.6151 25.0486 23.584L25.1289 23.5627C25.2053 23.5432 25.2835 23.5276 25.3619 23.5121C25.4774 23.4752 25.5969 23.4576 25.7163 23.4363L25.7751 23.4129C25.8671 23.3916 25.9591 23.3759 26.0493 23.3526L26.1061 23.3312C26.2054 23.3142 26.3034 23.2908 26.3998 23.2612C26.5173 23.2281 26.6367 23.2067 26.7542 23.1756L26.952 23.1367L27.0381 23.1289C26.9441 23.02 26.8344 22.9325 26.7443 22.8275Z"
                fill="white" />
        </g>
        <mask id="mask3_422_23059" style="mask-type:luminance" maskUnits="userSpaceOnUse" x="14" y="16" width="6"
            height="9">
            <path d="M14.2273 16.5281H19.2604V24.4703H14.2273V16.5281Z" fill="white" />
        </mask>
        <g mask="url(#mask3_422_23059)">
            <path
                d="M22.5814 21.3748C22.7713 21.2211 22.9494 21.0519 23.1492 20.908C23.2138 20.8633 23.2667 20.805 23.3254 20.7524C23.4312 20.6571 23.5526 20.5774 23.6524 20.4742C23.7524 20.3712 23.8737 20.2934 23.9815 20.198C24.0891 20.1028 24.1772 20.0308 24.2791 19.953C24.1968 19.8344 24.093 19.7314 24.0029 19.6185C23.9129 19.5057 23.7837 19.3793 23.6858 19.251C23.5429 19.0565 23.3587 18.8912 23.2589 18.6676C23.2099 18.5489 23.1473 18.4361 23.0963 18.3175C23.0669 18.2532 23.0376 18.1852 22.9827 18.1386C22.8732 18.0393 22.7752 17.9284 22.6577 17.839C22.4632 17.6613 22.2634 17.4896 22.0585 17.3236C21.9693 17.2378 21.876 17.1568 21.7785 17.0805C21.6297 16.9697 21.4926 16.8451 21.3517 16.7266C21.2831 16.6701 21.2068 16.6196 21.142 16.5573L21.1107 16.5515C20.7428 16.7549 20.3629 16.9331 19.9711 17.0863C19.74 17.166 19.5227 17.2769 19.2994 17.3742C19.2015 17.3723 19.1173 17.3158 19.0273 17.2866C18.7042 17.1213 18.3517 17.0222 18.0286 16.8569C17.8269 16.7576 17.6194 16.6682 17.4255 16.5496C17.0847 16.8472 16.7264 17.1213 16.3876 17.4209C16.2271 17.5454 16.0783 17.6834 15.9254 17.8177C15.8079 17.9013 15.712 18.0082 15.6023 18.0997C15.5332 18.1588 15.4842 18.2314 15.4555 18.3175C15.43 18.3875 15.3889 18.4497 15.3596 18.5178C15.3008 18.6287 15.2656 18.7531 15.1853 18.8523C15.0012 19.0837 14.8132 19.3133 14.6134 19.533C14.5041 19.6717 14.3853 19.802 14.2571 19.9239L14.265 19.9491C14.4529 20.0873 14.6155 20.2565 14.7976 20.4024C14.9013 20.4781 14.9836 20.5793 15.0855 20.659C15.2891 20.8127 15.4692 20.9955 15.6807 21.1414C15.8922 21.2872 16.0841 21.4623 16.2681 21.6431C16.4169 21.7734 16.5619 21.9115 16.7186 22.034C16.6912 22.2305 16.6324 22.4211 16.6031 22.6174C16.5573 22.784 16.5266 22.9533 16.511 23.1251C16.648 23.2399 16.8282 23.2826 16.9829 23.3701L17.0143 23.4499L17.0299 23.5258C17.0769 23.6715 17.0789 23.8291 17.1259 23.975C17.1473 24.0664 17.1689 24.1598 17.2061 24.2473C17.2434 24.3348 17.2492 24.3756 17.2687 24.4398C17.3628 24.3445 17.4626 24.2512 17.5508 24.1519C17.5469 24.0722 17.5605 23.9692 17.492 23.9108C17.6879 23.8291 17.8915 23.7669 18.0853 23.6775C18.2792 23.5879 18.4848 23.5024 18.6865 23.4187C18.851 23.339 19.0154 23.2612 19.1878 23.1971C19.229 23.1795 19.2759 23.1524 19.321 23.1795C19.4639 23.2437 19.6108 23.304 19.7538 23.3721C20.0082 23.4849 20.2628 23.5919 20.5194 23.7007C20.6662 23.765 20.8131 23.8447 20.9757 23.8583C21.001 23.9692 20.9952 24.0839 21.0422 24.1889C21.0891 24.294 21.1107 24.3776 21.1969 24.4339C21.2753 24.3445 21.3281 24.2356 21.3712 24.1267C21.4143 24.0178 21.4221 23.9556 21.4593 23.8759C21.4809 23.7261 21.4867 23.5743 21.5063 23.4226C21.6707 23.302 21.8763 23.2496 22.0389 23.1232C22.0409 23.0026 22.0076 22.8878 21.9919 22.7692C21.9411 22.6583 21.9351 22.5338 21.9078 22.4152C21.8882 22.3414 21.8588 22.2713 21.8353 22.2013C21.8275 22.1604 21.7961 22.1157 21.8059 22.0749C22.0605 21.8376 22.3151 21.5984 22.5814 21.3748ZM21.6316 19.7547C21.5435 19.7956 21.4573 19.8422 21.3673 19.8753C21.2772 19.9083 21.2243 19.8694 21.1597 19.8986C21.0598 19.9919 20.9854 20.1067 20.9032 20.2137C20.8209 20.3207 20.7328 20.4295 20.6447 20.5346C20.651 20.5809 20.6615 20.6262 20.676 20.6707C20.6995 20.8536 20.725 21.0382 20.7602 21.2192C20.7641 21.3261 20.7641 21.4331 20.7701 21.5401L20.7935 21.6023C20.7974 21.6412 20.8444 21.6957 20.7995 21.7267C20.6643 21.7385 20.5272 21.7248 20.3921 21.7306C20.2099 21.9135 20.0024 22.0652 19.8203 22.2499C19.6582 22.4359 19.48 22.6051 19.2858 22.7575C19.2074 22.6953 19.1173 22.6505 19.0448 22.5805C18.9372 22.4717 18.8295 22.3666 18.7316 22.2499C18.5474 22.0943 18.3889 21.9115 18.193 21.7714C18.0746 21.7491 17.9551 21.74 17.8347 21.7443L17.7877 21.6839C17.7857 21.5595 17.7838 21.437 17.7896 21.3144C17.8007 21.2429 17.8066 21.1709 17.8073 21.0986L17.825 21.081C17.8386 20.871 17.8896 20.6629 17.8876 20.451C17.7635 20.3636 17.6643 20.254 17.59 20.1223C17.5626 20.0755 17.541 20.0269 17.5038 19.988C17.4665 19.9491 17.3628 19.9162 17.2864 19.8947C17.1787 19.8636 17.0789 19.8169 16.975 19.778C16.8713 19.7391 16.7577 19.6769 16.6461 19.6361C16.605 19.6224 16.5619 19.6088 16.5325 19.5777C16.3191 19.3638 16.1487 19.1129 15.9528 18.8834C15.9372 18.8639 15.9157 18.8387 15.9314 18.8114C15.996 18.687 16.0958 18.5898 16.1938 18.4905C16.2466 18.4322 16.3347 18.4342 16.3934 18.3836C16.5031 18.3777 16.607 18.4127 16.7126 18.4342L16.8419 18.4731L16.9007 18.4924C17.0201 18.541 17.1493 18.5586 17.2728 18.6014L17.4117 18.6481L17.4704 18.6676C17.5723 18.7084 17.6801 18.7317 17.7857 18.7667L17.8289 18.7725L17.868 18.8134C17.8827 18.8941 17.9016 18.9738 17.9248 19.0526C17.9464 19.1751 17.962 19.2996 17.9816 19.4221C18.0306 19.5602 18.0266 19.708 18.052 19.8481C18.0638 19.887 18.0716 19.9259 18.0814 19.9667C18.1108 20.2059 18.1461 20.4452 18.1578 20.6863C18.15 20.7562 18.1442 20.8263 18.1304 20.8963C18.1284 21.0694 18.0794 21.2386 18.0814 21.4117C18.6023 21.4097 19.1212 21.4195 19.6421 21.4137C19.9339 21.4137 20.2257 21.4097 20.5174 21.4137C20.5037 21.3709 20.492 21.3301 20.4783 21.2872C20.4645 21.2444 20.4723 21.2386 20.4704 21.2134C20.4371 21.0519 20.4235 20.8886 20.4038 20.7252C20.3902 20.6006 20.4038 20.4742 20.4293 20.3537C20.4548 20.2331 20.4548 20.0795 20.4861 19.9472C20.5173 19.7818 20.5402 19.6151 20.5546 19.4474L20.5703 19.426L20.5762 19.3677C20.6094 19.1927 20.6349 19.0137 20.674 18.8387L20.6956 18.794C20.8112 18.7433 20.9325 18.7162 21.0539 18.6811L21.0912 18.6714L21.15 18.65L21.2282 18.6248C21.4828 18.547 21.7394 18.475 21.9959 18.4049C22.0722 18.3777 22.1506 18.4069 22.2289 18.4088C22.413 18.4808 22.5911 18.6306 22.6069 18.8406C22.5892 18.9593 22.5069 19.0526 22.4247 19.1343C22.3052 19.2626 22.2015 19.4066 22.0683 19.5213C22.0359 19.5537 22.0065 19.5887 21.9802 19.6263L21.9312 19.6419C21.8176 19.6439 21.7295 19.7118 21.6316 19.7547Z"
                fill="white" />
        </g>
        <path
            d="M17.1141 18.9378C17.0553 18.8561 16.9456 18.8426 16.8615 18.7978C16.7283 18.7317 16.5854 18.6947 16.4405 18.6616C16.3714 18.6953 16.3003 18.7239 16.2271 18.7473C16.2584 18.8153 16.3113 18.8698 16.3621 18.9242C16.4405 19.0214 16.5188 19.1187 16.5971 19.2159C16.6441 19.2763 16.7205 19.2996 16.791 19.3229C16.9187 19.3835 17.0512 19.4308 17.1885 19.4649C17.2206 19.4737 17.2531 19.4759 17.286 19.4715C17.3191 19.467 17.3498 19.4565 17.3784 19.4396C17.3784 19.4027 17.3784 19.3657 17.3765 19.3288C17.308 19.1848 17.2022 19.0682 17.1141 18.9378Z"
            fill="white" />
        <mask id="mask4_422_23059" style="mask-type:luminance" maskUnits="userSpaceOnUse" x="17" y="24" width="3"
            height="3">
            <path d="M17.4719 24.0669H19.2602V26.5178H17.4719V24.0669Z" fill="white" />
        </mask>
        <g mask="url(#mask4_422_23059)">
            <path
                d="M20.4273 24.8266C20.3156 24.743 20.2118 24.6516 20.1003 24.5661C19.8907 24.4085 19.687 24.2353 19.4442 24.1246L19.3855 24.107L19.3091 24.0837C19.2484 24.0951 19.189 24.1114 19.1309 24.1323L19.035 24.1654C18.8646 24.2413 18.7216 24.3599 18.5767 24.4726C18.4985 24.5543 18.3927 24.601 18.3104 24.6768C18.1675 24.8072 18.0031 24.9122 17.8562 25.0386C17.7856 25.0989 17.7308 25.1748 17.6623 25.2389C17.5938 25.3031 17.5664 25.3556 17.5585 25.4295C17.5487 25.497 17.533 25.5631 17.5115 25.6279C17.4978 25.6688 17.488 25.7115 17.4763 25.7524L17.5703 25.8263C17.7125 25.8785 17.8516 25.9383 17.9873 26.0052C18.0892 26.0441 18.1929 26.083 18.2929 26.1277C18.4612 26.2036 18.6414 26.2483 18.8059 26.3319L18.8372 26.3398C18.9723 26.3923 19.0996 26.4602 19.2367 26.5109C19.3483 26.5148 19.4442 26.4505 19.5442 26.4136C19.8418 26.2775 20.1531 26.1744 20.4527 26.0421C20.5957 25.98 20.7366 25.9138 20.8835 25.8633C20.9402 25.8394 20.9944 25.8109 21.046 25.7777C21.0363 25.6473 21.0089 25.5209 20.9814 25.3945C20.8815 25.1378 20.627 24.9977 20.4273 24.8266Z"
                fill="white" />
        </g>
    </symbol>

    <symbol width="36" height="36" viewBox="0 0 36 36" fill="none" id="glass-icon">
        <path
            d="M29.4 31.5L19.95 22.05C19.2 22.65 18.3375 23.125 17.3625 23.475C16.3875 23.825 15.35 24 14.25 24C11.525 24 9.219 23.0565 7.332 21.1695C5.444 19.2815 4.5 16.975 4.5 14.25C4.5 11.525 5.444 9.2185 7.332 7.3305C9.219 5.4435 11.525 4.5 14.25 4.5C16.975 4.5 19.2815 5.4435 21.1695 7.3305C23.0565 9.2185 24 11.525 24 14.25C24 15.35 23.825 16.3875 23.475 17.3625C23.125 18.3375 22.65 19.2 22.05 19.95L31.5 29.4L29.4 31.5ZM14.25 21C16.125 21 17.719 20.344 19.032 19.032C20.344 17.719 21 16.125 21 14.25C21 12.375 20.344 10.781 19.032 9.468C17.719 8.156 16.125 7.5 14.25 7.5C12.375 7.5 10.781 8.156 9.468 9.468C8.156 10.781 7.5 12.375 7.5 14.25C7.5 16.125 8.156 17.719 9.468 19.032C10.781 20.344 12.375 21 14.25 21Z"
            fill="white" />
    </symbol>


</svg>